<?xml version="1.0" standalone="no"?><!DOCTYPE svg PUBLIC "-//W3C//DTD SVG 1.1//EN" "http://www.w3.org/Graphics/SVG/1.1/DTD/svg11.dtd"><svg t="1594561190799" class="icon" viewBox="0 0 1024 1024" version="1.1" xmlns="http://www.w3.org/2000/svg" p-id="2238" xmlns:xlink="http://www.w3.org/1999/xlink" width="200" height="200"><defs><style type="text/css"></style></defs><path d="M784.457143 616.228571c5.485714 0 9.142857-1.828571 12.8-5.485714 3.657143-3.657143 5.485714-7.314286 5.485714-12.8 0-5.485714-1.828571-9.142857-5.485714-12.8-7.314286-7.314286-18.285714-7.314286-25.6 0-3.657143 3.657143-5.485714 7.314286-5.485714 12.8 0 5.485714 1.828571 9.142857 5.485714 12.8 3.657143 3.657143 9.142857 5.485714 12.8 5.485714zM784.457143 640c-10.971429 0-18.285714 7.314286-18.285714 18.285714v122.514286c0 1.828571-7.314286 5.485714-16.457143 5.485714H266.971429c-10.971429 0-16.457143-5.485714-16.457143-5.485714V603.428571c0-10.971429-7.314286-18.285714-18.285715-18.285714s-18.285714 7.314286-18.285714 18.285714v175.542858c0 23.771429 23.771429 42.057143 53.028572 42.057142H749.714286c29.257143 0 53.028571-18.285714 53.028571-42.057142V658.285714c0-10.971429-7.314286-18.285714-18.285714-18.285714zM855.771429 358.4L786.285714 224.914286c-9.142857-14.628571-23.771429-23.771429-40.228571-23.771429H263.314286c-16.457143 0-31.085714 9.142857-38.4 23.771429l-69.485715 135.314285c-3.657143 5.485714-5.485714 12.8-5.485714 20.114286v80.457143c0 65.828571 62.171429 118.857143 138.971429 118.857143 38.4 0 76.8-14.628571 102.4-40.228572 3.657143-3.657143 7.314286-3.657143 10.971428 0 25.6 25.6 64 40.228571 102.4 40.228572s76.8-14.628571 102.4-40.228572c3.657143-3.657143 7.314286-3.657143 10.971429 0 25.6 25.6 64 40.228571 102.4 40.228572 76.8 0 138.971429-53.028571 138.971428-118.857143v-82.285714c1.828571-7.314286 0-12.8-3.657142-20.114286zM256 241.371429c1.828571-1.828571 3.657143-3.657143 7.314286-3.657143h484.571428c1.828571 0 5.485714 1.828571 5.485715 3.657143l62.171428 118.857142H195.657143L256 241.371429z m466.285714 301.714285c-29.257143 0-58.514286-10.971429-76.8-29.257143-9.142857-9.142857-20.114286-12.8-31.085714-12.8-10.971429 0-21.942857 3.657143-31.085714 12.8-20.114286 18.285714-47.542857 29.257143-76.8 29.257143s-58.514286-10.971429-76.8-29.257143c-16.457143-16.457143-43.885714-16.457143-62.171429 0-20.114286 18.285714-47.542857 29.257143-76.8 29.257143-56.685714 0-102.4-36.571429-102.4-82.285714v-64h638.171429v64c-1.828571 45.714286-47.542857 82.285714-104.228572 82.285714z" fill="#DF345C" p-id="2239"></path></svg>